<svg width="1280" height="720" viewBox="0 0 1280 720" fill="none" xmlns="http://www.w3.org/2000/svg">
<rect width="1280" height="720" fill="white"/>
<path d="M297.354 355.172V367H237.228V356.835L266.428 324.986C269.632 321.371 272.157 318.25 274.006 315.622C275.854 312.993 277.147 310.632 277.887 308.537C278.667 306.402 279.057 304.328 279.057 302.315C279.057 299.481 278.523 296.997 277.455 294.861C276.429 292.684 274.909 290.98 272.897 289.748C270.884 288.475 268.441 287.838 265.566 287.838C262.239 287.838 259.446 288.557 257.188 289.994C254.929 291.432 253.224 293.424 252.074 295.97C250.924 298.475 250.349 301.35 250.349 304.594H235.503C235.503 299.379 236.694 294.615 239.076 290.302C241.458 285.949 244.908 282.499 249.425 279.953C253.943 277.365 259.385 276.072 265.751 276.072C271.747 276.072 276.839 277.078 281.029 279.09C285.218 281.103 288.401 283.957 290.577 287.653C292.795 291.349 293.904 295.723 293.904 300.775C293.904 303.568 293.452 306.34 292.549 309.092C291.645 311.843 290.351 314.595 288.668 317.347C287.025 320.057 285.074 322.788 282.815 325.54C280.556 328.251 278.072 331.002 275.361 333.795L255.955 355.172H297.354ZM324.521 325.294L312.693 322.398L317.56 277.304H365.92V289.871H329.881L327.417 311.864C328.813 311.042 330.743 310.242 333.208 309.461C335.672 308.64 338.485 308.229 341.648 308.229C345.878 308.229 349.656 308.927 352.983 310.324C356.35 311.679 359.205 313.671 361.546 316.299C363.887 318.887 365.673 322.049 366.905 325.786C368.138 329.483 368.754 333.651 368.754 338.292C368.754 342.44 368.138 346.321 366.905 349.936C365.714 353.55 363.907 356.733 361.484 359.484C359.061 362.236 356.001 364.392 352.305 365.953C348.65 367.472 344.317 368.232 339.307 368.232C335.569 368.232 331.976 367.698 328.526 366.63C325.117 365.521 322.057 363.899 319.347 361.764C316.636 359.587 314.459 356.917 312.817 353.755C311.174 350.552 310.229 346.876 309.983 342.728H324.521C324.891 345.644 325.692 348.128 326.924 350.182C328.197 352.194 329.881 353.734 331.976 354.802C334.07 355.87 336.493 356.404 339.245 356.404C341.75 356.404 343.906 355.973 345.713 355.11C347.52 354.207 349.02 352.934 350.211 351.291C351.443 349.607 352.346 347.636 352.921 345.377C353.537 343.118 353.845 340.613 353.845 337.861C353.845 335.233 353.496 332.83 352.798 330.653C352.141 328.477 351.135 326.587 349.779 324.986C348.465 323.384 346.802 322.152 344.789 321.289C342.777 320.386 340.456 319.934 337.828 319.934C334.296 319.934 331.585 320.447 329.696 321.474C327.848 322.501 326.123 323.774 324.521 325.294ZM381.691 359.607C381.691 357.308 382.471 355.377 384.032 353.817C385.592 352.215 387.707 351.414 390.377 351.414C393.087 351.414 395.202 352.215 396.722 353.817C398.283 355.377 399.063 357.308 399.063 359.607C399.063 361.907 398.283 363.838 396.722 365.398C395.202 366.959 393.087 367.739 390.377 367.739C387.707 367.739 385.592 366.959 384.032 365.398C382.471 363.838 381.691 361.907 381.691 359.607ZM381.752 307.12C381.752 304.82 382.532 302.89 384.093 301.329C385.654 299.728 387.769 298.927 390.438 298.927C393.149 298.927 395.264 299.728 396.784 301.329C398.344 302.89 399.125 304.82 399.125 307.12C399.125 309.42 398.344 311.35 396.784 312.911C395.264 314.472 393.149 315.252 390.438 315.252C387.769 315.252 385.654 314.472 384.093 312.911C382.532 311.35 381.752 309.42 381.752 307.12ZM472.373 314.636V329.298C472.373 336.321 471.674 342.317 470.278 347.287C468.923 352.215 466.951 356.219 464.364 359.299C461.777 362.38 458.676 364.638 455.062 366.076C451.489 367.513 447.484 368.232 443.049 368.232C439.517 368.232 436.231 367.78 433.192 366.877C430.194 365.973 427.483 364.556 425.06 362.626C422.637 360.696 420.563 358.211 418.838 355.172C417.154 352.092 415.84 348.416 414.895 344.145C413.992 339.873 413.54 334.925 413.54 329.298V314.636C413.54 307.572 414.238 301.617 415.635 296.771C417.031 291.883 419.023 287.92 421.61 284.881C424.198 281.801 427.278 279.562 430.851 278.166C434.465 276.77 438.49 276.072 442.926 276.072C446.499 276.072 449.784 276.523 452.782 277.427C455.821 278.289 458.532 279.665 460.914 281.554C463.337 283.444 465.391 285.908 467.075 288.947C468.8 291.945 470.114 295.58 471.017 299.851C471.921 304.081 472.373 309.009 472.373 314.636ZM457.526 331.393V312.418C457.526 308.845 457.321 305.703 456.91 302.993C456.499 300.241 455.883 297.921 455.062 296.031C454.281 294.101 453.296 292.541 452.105 291.349C450.914 290.117 449.558 289.234 448.039 288.7C446.519 288.126 444.815 287.838 442.926 287.838C440.626 287.838 438.572 288.29 436.765 289.193C434.958 290.056 433.438 291.452 432.206 293.382C430.974 295.313 430.03 297.859 429.373 301.021C428.756 304.143 428.448 307.942 428.448 312.418V331.393C428.448 335.007 428.654 338.19 429.065 340.941C429.475 343.693 430.091 346.054 430.913 348.026C431.734 349.956 432.72 351.558 433.87 352.831C435.061 354.063 436.416 354.967 437.936 355.542C439.496 356.117 441.201 356.404 443.049 356.404C445.39 356.404 447.464 355.952 449.271 355.049C451.078 354.145 452.597 352.708 453.83 350.736C455.062 348.724 455.986 346.116 456.602 342.913C457.218 339.709 457.526 335.869 457.526 331.393ZM544.08 314.636V329.298C544.08 336.321 543.382 342.317 541.986 347.287C540.631 352.215 538.659 356.219 536.072 359.299C533.484 362.38 530.384 364.638 526.769 366.076C523.196 367.513 519.192 368.232 514.757 368.232C511.225 368.232 507.939 367.78 504.9 366.877C501.902 365.973 499.191 364.556 496.768 362.626C494.345 360.696 492.271 358.211 490.546 355.172C488.862 352.092 487.548 348.416 486.603 344.145C485.7 339.873 485.248 334.925 485.248 329.298V314.636C485.248 307.572 485.946 301.617 487.343 296.771C488.739 291.883 490.731 287.92 493.318 284.881C495.906 281.801 498.986 279.562 502.559 278.166C506.173 276.77 510.198 276.072 514.633 276.072C518.206 276.072 521.492 276.523 524.49 277.427C527.529 278.289 530.24 279.665 532.622 281.554C535.045 283.444 537.099 285.908 538.782 288.947C540.507 291.945 541.822 295.58 542.725 299.851C543.629 304.081 544.08 309.009 544.08 314.636ZM529.234 331.393V312.418C529.234 308.845 529.028 305.703 528.618 302.993C528.207 300.241 527.591 297.921 526.769 296.031C525.989 294.101 525.003 292.541 523.812 291.349C522.621 290.117 521.266 289.234 519.747 288.7C518.227 288.126 516.523 287.838 514.633 287.838C512.333 287.838 510.28 288.29 508.473 289.193C506.666 290.056 505.146 291.452 503.914 293.382C502.682 295.313 501.737 297.859 501.08 301.021C500.464 304.143 500.156 307.942 500.156 312.418V331.393C500.156 335.007 500.362 338.19 500.772 340.941C501.183 343.693 501.799 346.054 502.62 348.026C503.442 349.956 504.428 351.558 505.577 352.831C506.769 354.063 508.124 354.967 509.643 355.542C511.204 356.117 512.908 356.404 514.757 356.404C517.098 356.404 519.172 355.952 520.979 355.049C522.786 354.145 524.305 352.708 525.537 350.736C526.769 348.724 527.694 346.116 528.31 342.913C528.926 339.709 529.234 335.869 529.234 331.393Z" fill="#323238"/>
<path d="M252.18 449.2L268.2 439L252.18 428.8V449.2ZM258 463C254.72 463 251.62 462.37 248.7 461.11C245.78 459.85 243.23 458.13 241.05 455.95C238.87 453.77 237.15 451.22 235.89 448.3C234.63 445.38 234 442.28 234 439C234 435.72 234.63 432.62 235.89 429.7C237.15 426.78 238.87 424.23 241.05 422.05C243.23 419.87 245.78 418.15 248.7 416.89C251.62 415.63 254.72 415 258 415C261.28 415 264.38 415.63 267.3 416.89C270.22 418.15 272.77 419.87 274.95 422.05C277.13 424.23 278.85 426.78 280.11 429.7C281.37 432.62 282 435.72 282 439C282 442.28 281.37 445.38 280.11 448.3C278.85 451.22 277.13 453.77 274.95 455.95C272.77 458.13 270.22 459.85 267.3 461.11C264.38 462.37 261.28 463 258 463ZM258 459.4C263.6 459.4 268.4 457.4 272.4 453.4C276.4 449.4 278.4 444.6 278.4 439C278.4 433.4 276.4 428.6 272.4 424.6C268.4 420.6 263.6 418.6 258 418.6C252.4 418.6 247.6 420.6 243.6 424.6C239.6 428.6 237.6 433.4 237.6 439C237.6 444.6 239.6 449.4 243.6 453.4C247.6 457.4 252.4 459.4 258 459.4Z" fill="#323238"/>
<path d="M346 463C342.6 463 339.44 462.39 336.52 461.17C333.6 459.95 331.06 458.26 328.9 456.1C326.74 453.94 325.05 451.4 323.83 448.48C322.61 445.56 322 442.4 322 439C322 435.64 322.61 432.5 323.83 429.58C325.05 426.66 326.74 424.12 328.9 421.96C331.06 419.8 333.6 418.1 336.52 416.86C339.44 415.62 342.6 415 346 415C349.36 415 352.5 415.62 355.42 416.86C358.34 418.1 360.88 419.8 363.04 421.96C365.2 424.12 366.9 426.66 368.14 429.58C369.38 432.5 370 435.64 370 439C370 442.4 369.38 445.56 368.14 448.48C366.9 451.4 365.2 453.94 363.04 456.1C360.88 458.26 358.34 459.95 355.42 461.17C352.5 462.39 349.36 463 346 463ZM346 459.4C351.8 459.4 356.65 457.45 360.55 453.55C364.45 449.65 366.4 444.8 366.4 439C366.4 433.2 364.45 428.35 360.55 424.45C356.65 420.55 351.8 418.6 346 418.6C340.2 418.6 335.35 420.55 331.45 424.45C327.55 428.35 325.6 433.2 325.6 439C325.6 444.8 327.55 449.65 331.45 453.55C335.35 457.45 340.2 459.4 346 459.4ZM337 448H355V430H337V448Z" fill="#323238"/>
<path d="M432.38 451H435.98V441.04H446V437.44H435.98V427H432.38V437.44H422V441.04H432.38V451ZM434 463C430.6 463 427.44 462.39 424.52 461.17C421.6 459.95 419.06 458.26 416.9 456.1C414.74 453.94 413.05 451.4 411.83 448.48C410.61 445.56 410 442.4 410 439C410 435.64 410.61 432.5 411.83 429.58C413.05 426.66 414.74 424.12 416.9 421.96C419.06 419.8 421.6 418.1 424.52 416.86C427.44 415.62 430.6 415 434 415C437.36 415 440.5 415.62 443.42 416.86C446.34 418.1 448.88 419.8 451.04 421.96C453.2 424.12 454.9 426.66 456.14 429.58C457.38 432.5 458 435.64 458 439C458 442.4 457.38 445.56 456.14 448.48C454.9 451.4 453.2 453.94 451.04 456.1C448.88 458.26 446.34 459.95 443.42 461.17C440.5 462.39 437.36 463 434 463ZM434 459.4C439.6 459.4 444.4 457.4 448.4 453.4C452.4 449.4 454.4 444.6 454.4 439C454.4 433.4 452.4 428.6 448.4 424.6C444.4 420.6 439.6 418.6 434 418.6C428.4 418.6 423.6 420.6 419.6 424.6C415.6 428.6 413.6 433.4 413.6 439C413.6 444.6 415.6 449.4 419.6 453.4C423.6 457.4 428.4 459.4 434 459.4Z" fill="#323238"/>
<path d="M510 440.62H534V437.02H510V440.62ZM522 463C518.6 463 515.44 462.39 512.52 461.17C509.6 459.95 507.06 458.26 504.9 456.1C502.74 453.94 501.05 451.4 499.83 448.48C498.61 445.56 498 442.4 498 439C498 435.64 498.61 432.5 499.83 429.58C501.05 426.66 502.74 424.12 504.9 421.96C507.06 419.8 509.6 418.1 512.52 416.86C515.44 415.62 518.6 415 522 415C525.36 415 528.5 415.62 531.42 416.86C534.34 418.1 536.88 419.8 539.04 421.96C541.2 424.12 542.9 426.66 544.14 429.58C545.38 432.5 546 435.64 546 439C546 442.4 545.38 445.56 544.14 448.48C542.9 451.4 541.2 453.94 539.04 456.1C536.88 458.26 534.34 459.95 531.42 461.17C528.5 462.39 525.36 463 522 463ZM522 459.4C527.8 459.4 532.65 457.45 536.55 453.55C540.45 449.65 542.4 444.8 542.4 439C542.4 433.2 540.45 428.35 536.55 424.45C532.65 420.55 527.8 418.6 522 418.6C516.2 418.6 511.35 420.55 507.45 424.45C503.55 428.35 501.6 433.2 501.6 439C501.6 444.8 503.55 449.65 507.45 453.55C511.35 457.45 516.2 459.4 522 459.4Z" fill="#323238"/>
<path d="M913 400C913 386.745 923.745 376 937 376H1027C1040.25 376 1051 386.745 1051 400V504C1051 517.255 1040.25 528 1027 528H937C923.745 528 913 517.255 913 504V400Z" fill="#E1E1E6"/>
<path d="M962.421 456.421C962.421 459.516 963.121 462.426 964.521 465.153C965.921 467.879 967.874 470.151 970.379 471.968C970.182 471.379 970.035 470.777 969.937 470.163C969.839 469.549 969.789 468.947 969.789 468.358C969.789 466.786 970.084 465.312 970.674 463.937C971.263 462.561 972.123 461.309 973.253 460.179L981.579 452L989.905 460.179C991.035 461.309 991.895 462.561 992.484 463.937C993.074 465.312 993.368 466.786 993.368 468.358C993.368 468.947 993.319 469.549 993.221 470.163C993.123 470.777 992.975 471.379 992.779 471.968C995.284 470.151 997.237 467.879 998.637 465.153C1000.04 462.426 1000.74 459.516 1000.74 456.421C1000.74 453.768 1000.17 451.177 999.042 448.647C997.912 446.118 996.291 443.796 994.179 441.684C993.147 442.421 992.067 442.998 990.937 443.416C989.807 443.833 988.677 444.042 987.547 444.042C984.551 444.042 982.07 443.023 980.105 440.984C978.14 438.946 977.158 436.379 977.158 433.284V431.811C974.898 433.432 972.86 435.225 971.042 437.189C969.225 439.154 967.677 441.205 966.4 443.342C965.123 445.479 964.14 447.665 963.453 449.9C962.765 452.135 962.421 454.309 962.421 456.421ZM981.579 458.189L976.347 463.347C975.66 464.035 975.132 464.796 974.763 465.632C974.395 466.467 974.211 467.375 974.211 468.358C974.211 470.372 974.923 472.079 976.347 473.479C977.772 474.879 979.516 475.579 981.579 475.579C983.642 475.579 985.386 474.879 986.811 473.479C988.235 472.079 988.947 470.372 988.947 468.358C988.947 467.375 988.763 466.467 988.395 465.632C988.026 464.796 987.498 464.035 986.811 463.347L981.579 458.189ZM981.579 424V433.726C981.579 435.396 982.156 436.796 983.311 437.926C984.465 439.056 985.877 439.621 987.547 439.621C988.432 439.621 989.254 439.437 990.016 439.068C990.777 438.7 991.453 438.147 992.042 437.411L993.368 435.789C997.004 437.853 999.877 440.726 1001.99 444.411C1004.1 448.095 1005.16 452.098 1005.16 456.421C1005.16 463.004 1002.87 468.579 998.305 473.147C993.737 477.716 988.161 480 981.579 480C974.996 480 969.421 477.716 964.853 473.147C960.284 468.579 958 463.004 958 456.421C958 450.133 960.112 444.079 964.337 438.258C968.561 432.437 974.309 427.684 981.579 424Z" fill="#323238"/>
<path d="M743 400C743 386.745 753.745 376 767 376H857C870.255 376 881 386.745 881 400V504C881 517.255 870.255 528 857 528H767C753.745 528 743 517.255 743 504V400Z" fill="#E1E1E6"/>
<path d="M837.081 448.967V475.333C837.081 476.578 836.663 477.667 835.827 478.6C834.992 479.533 834.016 480 832.902 480H791.039C789.924 480 788.949 479.533 788.113 478.6C787.277 477.667 786.859 476.578 786.859 475.333V448.967C785.559 447.722 784.7 446.193 784.282 444.378C783.864 442.563 783.911 440.748 784.421 438.933L787.417 428.433C787.788 427.033 788.438 425.944 789.367 425.167C790.296 424.389 791.364 424 792.571 424H831.091C832.391 424 833.529 424.402 834.504 425.206C835.479 426.009 836.153 427.085 836.524 428.433L839.589 438.933C840.1 440.748 840.134 442.563 839.693 444.378C839.252 446.193 838.381 447.722 837.081 448.967ZM818.274 446.556C819.621 446.556 820.759 446.063 821.687 445.078C822.616 444.093 822.988 442.9 822.802 441.5L821.06 428.667H814.095V441.5C814.095 442.848 814.49 444.028 815.279 445.039C816.068 446.05 817.067 446.556 818.274 446.556ZM805.249 446.556C806.549 446.556 807.652 446.063 808.557 445.078C809.463 444.093 809.915 442.9 809.915 441.5V428.667H802.95L801.208 441.5C801.023 442.848 801.348 444.028 802.184 445.039C803.02 446.05 804.041 446.556 805.249 446.556ZM792.571 446.556C793.686 446.556 794.649 446.128 795.462 445.272C796.275 444.417 796.751 443.367 796.89 442.122L798.701 428.667H791.735L788.531 440.022C788.067 441.63 788.252 443.12 789.088 444.494C789.924 445.869 791.085 446.556 792.571 446.556ZM831.369 446.556C832.855 446.556 834.028 445.881 834.887 444.533C835.746 443.185 835.944 441.681 835.479 440.022L832.275 428.667H825.309L827.12 442.122C827.26 443.367 827.736 444.417 828.548 445.272C829.361 446.128 830.301 446.556 831.369 446.556ZM791.039 475.333H832.902V451.144C832.948 451.196 832.797 451.222 832.449 451.222C832.101 451.222 831.741 451.222 831.369 451.222C830.209 451.222 829.106 450.95 828.061 450.406C827.016 449.861 825.983 449.019 824.961 447.878C824.218 448.915 823.289 449.731 822.175 450.328C821.06 450.924 819.83 451.222 818.483 451.222C817.09 451.222 815.894 451.002 814.896 450.561C813.897 450.12 812.934 449.381 812.005 448.344C811.309 449.278 810.426 449.991 809.358 450.483C808.29 450.976 807.083 451.222 805.736 451.222C804.297 451.222 803.02 450.937 801.905 450.367C800.791 449.796 799.839 448.967 799.049 447.878C797.935 448.967 796.843 449.796 795.775 450.367C794.707 450.937 793.639 451.222 792.571 451.222C792.246 451.222 791.933 451.222 791.631 451.222C791.329 451.222 791.132 451.196 791.039 451.144V475.333ZM832.902 475.333H791.039C791.132 475.333 791.329 475.333 791.631 475.333C791.933 475.333 792.246 475.333 792.571 475.333C793.361 475.333 794.301 475.333 795.392 475.333C796.483 475.333 797.702 475.333 799.049 475.333C799.467 475.333 799.931 475.333 800.442 475.333C800.953 475.333 801.499 475.333 802.079 475.333C802.66 475.333 803.252 475.333 803.855 475.333C804.459 475.333 805.086 475.333 805.736 475.333C806.247 475.333 806.781 475.333 807.338 475.333C807.895 475.333 808.453 475.333 809.01 475.333C809.567 475.333 810.101 475.333 810.612 475.333C811.123 475.333 811.587 475.333 812.005 475.333C813.027 475.333 814.048 475.333 815.07 475.333C816.092 475.333 817.229 475.333 818.483 475.333C819.133 475.333 819.772 475.333 820.399 475.333C821.026 475.333 821.618 475.333 822.175 475.333C822.732 475.333 823.243 475.333 823.707 475.333C824.172 475.333 824.59 475.333 824.961 475.333C826.029 475.333 827.097 475.333 828.165 475.333C829.233 475.333 830.301 475.333 831.369 475.333C831.741 475.333 832.101 475.333 832.449 475.333C832.797 475.333 832.948 475.333 832.902 475.333Z" fill="#323238"/>
<path d="M913 216C913 202.745 923.745 192 937 192H1027C1040.25 192 1051 202.745 1051 216V320C1051 333.255 1040.25 344 1027 344H937C923.745 344 913 333.255 913 320V216Z" fill="#02799D"/>
<path d="M966.526 285.333C965.912 285.333 965.375 285.1 964.914 284.633C964.454 284.167 964.224 283.622 964.224 283C964.224 282.378 964.454 281.833 964.914 281.367C965.375 280.9 965.912 280.667 966.526 280.667C967.14 280.667 967.678 280.9 968.138 281.367C968.599 281.833 968.829 282.378 968.829 283C968.829 283.622 968.599 284.167 968.138 284.633C967.678 285.1 967.14 285.333 966.526 285.333ZM998.105 285.333C997.491 285.333 996.954 285.1 996.493 284.633C996.033 284.167 995.803 283.622 995.803 283C995.803 282.378 996.033 281.833 996.493 281.367C996.954 280.9 997.491 280.667 998.105 280.667C998.719 280.667 999.257 280.9 999.717 281.367C1000.18 281.833 1000.41 282.378 1000.41 283C1000.41 283.622 1000.18 284.167 999.717 284.633C999.257 285.1 998.719 285.333 998.105 285.333ZM974.421 296C973.807 296 973.27 295.767 972.809 295.3C972.349 294.833 972.118 294.289 972.118 293.667C972.118 293.044 972.349 292.5 972.809 292.033C973.27 291.567 973.807 291.333 974.421 291.333C975.035 291.333 975.572 291.567 976.033 292.033C976.493 292.5 976.724 293.044 976.724 293.667C976.724 294.289 976.493 294.833 976.033 295.3C975.572 295.767 975.035 296 974.421 296ZM982.316 285.333C981.702 285.333 981.164 285.1 980.704 284.633C980.243 284.167 980.013 283.622 980.013 283C980.013 282.378 980.243 281.833 980.704 281.367C981.164 280.9 981.702 280.667 982.316 280.667C982.93 280.667 983.467 280.9 983.928 281.367C984.388 281.833 984.618 282.378 984.618 283C984.618 283.622 984.388 284.167 983.928 284.633C983.467 285.1 982.93 285.333 982.316 285.333ZM990.211 296C989.596 296 989.059 295.767 988.599 295.3C988.138 294.833 987.908 294.289 987.908 293.667C987.908 293.044 988.138 292.5 988.599 292.033C989.059 291.567 989.596 291.333 990.211 291.333C990.825 291.333 991.362 291.567 991.822 292.033C992.283 292.5 992.513 293.044 992.513 293.667C992.513 294.289 992.283 294.833 991.822 295.3C991.362 295.767 990.825 296 990.211 296ZM969.816 276C966 276 962.743 274.633 960.046 271.9C957.349 269.167 956 265.867 956 262C956 258.489 957.239 255.356 959.717 252.6C962.195 249.844 965.276 248.333 968.961 248.067C970.364 245.578 972.217 243.611 974.52 242.167C976.822 240.722 979.421 240 982.316 240C986.307 240 989.651 241.278 992.349 243.833C995.046 246.389 996.702 249.556 997.316 253.333C1000.78 253.511 1003.53 254.7 1005.57 256.9C1007.61 259.1 1008.63 261.689 1008.63 264.667C1008.63 267.778 1007.55 270.444 1005.38 272.667C1003.2 274.889 1000.56 276 997.447 276H969.816ZM969.816 272H997.447C999.465 272 1001.18 271.278 1002.58 269.833C1003.98 268.389 1004.68 266.644 1004.68 264.6C1004.68 262.6 1003.98 260.889 1002.58 259.467C1001.18 258.044 999.465 257.333 997.447 257.333H993.5V255.333C993.5 252.178 992.414 249.5 990.243 247.3C988.072 245.1 985.43 244 982.316 244C980.079 244 978.029 244.611 976.164 245.833C974.3 247.056 972.93 248.711 972.053 250.8L971.526 252H969.684C966.965 252.089 964.662 253.1 962.776 255.033C960.89 256.967 959.947 259.289 959.947 262C959.947 264.756 960.912 267.111 962.842 269.067C964.772 271.022 967.096 272 969.816 272Z" fill="white"/>
<path d="M743 216C743 202.745 753.745 192 767 192H857C870.255 192 881 202.745 881 216V320C881 333.255 870.255 344 857 344H767C753.745 344 743 333.255 743 320V216Z" fill="#E1E1E6"/>
<path d="M743 216C743 202.745 753.745 192 767 192H857C870.255 192 881 202.745 881 216V320C881 333.255 870.255 344 857 344H767C753.745 344 743 333.255 743 320V216Z" fill="#E1E1E6"/>
<path d="M794.836 296V291.8H810.033V279.2H803.816C799.993 279.2 796.735 277.835 794.041 275.105C791.347 272.375 790 269.073 790 265.2C790 262.4 790.76 259.822 792.28 257.465C793.799 255.108 795.849 253.393 798.428 252.32C798.842 248.82 800.35 245.892 802.952 243.535C805.554 241.178 808.605 240 812.105 240C815.605 240 818.656 241.178 821.258 243.535C823.86 245.892 825.368 248.82 825.783 252.32C828.362 253.393 830.411 255.108 831.931 257.465C833.451 259.822 834.211 262.4 834.211 265.2C834.211 269.073 832.863 272.375 830.169 275.105C827.475 277.835 824.217 279.2 820.395 279.2H814.178V291.8H830.066V296H794.836ZM803.816 275H820.395C823.066 275 825.345 274.043 827.234 272.13C829.122 270.217 830.066 267.907 830.066 265.2C830.066 263.24 829.513 261.455 828.408 259.845C827.303 258.235 825.875 257.033 824.125 256.24L821.914 255.26L821.638 252.81C821.316 250.337 820.257 248.283 818.461 246.65C816.664 245.017 814.546 244.2 812.105 244.2C809.664 244.2 807.546 245.017 805.75 246.65C803.954 248.283 802.895 250.337 802.572 252.81L802.296 255.26L800.086 256.24C798.336 257.033 796.908 258.235 795.803 259.845C794.697 261.455 794.145 263.24 794.145 265.2C794.145 267.907 795.089 270.217 796.977 272.13C798.865 274.043 801.145 275 803.816 275Z" fill="#323238"/>
</svg>
